<svg xmlns="http://www.w3.org/2000/svg" viewBox="0 0 512 512" role="img" aria-labelledby="title">
  <title id="title">Dota 2 logo</title>
  <circle cx="256" cy="256" r="252" fill="#000" />
  <rect x="80" y="80" width="352" height="352" rx="27.5" fill="#fff" />
  <path d="M 7.284 19.918 C 8.289 19.539 9.118 19.223 9.123 19.216 C 9.136 19.202 5.206 15.39 4.684 14.909 C 4.539 14.775 4.409 14.672 4.399 14.682 C 4.39 14.693 4.07 15.547 3.69 16.577 C 3.27 17.715 3.011 18.476 3.032 18.508 C 3.057 18.55 5.424 20.599 5.451 20.605 C 5.454 20.605 6.279 20.296 7.284 19.918 Z M 20.796 17.829 C 21.319 16.564 21.732 15.519 21.718 15.504 C 21.699 15.483 11.888 8.858 5.02 4.226 L 4.469 3.855 L 3.569 4.262 C 3.072 4.484 2.673 4.687 2.68 4.709 C 2.69 4.737 6.011 8.219 10.064 12.449 L 17.432 20.141 L 18.638 20.133 L 19.847 20.125 L 20.796 17.829 Z M 19.434 6.972 C 19.607 6.01 19.75 5.191 19.75 5.151 C 19.75 5.108 19.497 4.902 19.074 4.605 C 18.702 4.343 18.373 4.115 18.344 4.096 C 18.291 4.063 14.442 5.104 14.447 5.149 C 14.451 5.179 19.091 8.748 19.107 8.731 C 19.115 8.725 19.261 7.932 19.434 6.972 Z" fill="#000" transform="translate(80 80) scale(14.6666667)" />
</svg>
